<svg width="18" height="24" viewBox="0 0 18 24" fill="none" xmlns="http://www.w3.org/2000/svg">
<path d="M3 21.75H15C15.375 21.75 15.75 21.4219 15.75 21V7.5H12C11.1562 7.5 10.5 6.84375 10.5 6V2.25H3C2.57812 2.25 2.25 2.625 2.25 3V21C2.25 21.4219 2.57812 21.75 3 21.75ZM0 3C0 1.35938 1.3125 0 3 0H10.7344C11.5312 0 12.2812 0.328125 12.8438 0.890625L17.1094 5.15625C17.6719 5.71875 18 6.46875 18 7.26562V21C18 22.6875 16.6406 24 15 24H3C1.3125 24 0 22.6875 0 21V3ZM3.75 5.25C3.75 4.875 4.07812 4.5 4.5 4.5H8.25C8.625 4.5 9 4.875 9 5.25C9 5.67188 8.625 6 8.25 6H4.5C4.07812 6 3.75 5.67188 3.75 5.25ZM3.75 8.25C3.75 7.875 4.07812 7.5 4.5 7.5H8.25C8.625 7.5 9 7.875 9 8.25C9 8.67188 8.625 9 8.25 9H4.5C4.07812 9 3.75 8.67188 3.75 8.25ZM9 18.75C9 18.375 9.32812 18 9.75 18H13.5C13.875 18 14.25 18.375 14.25 18.75C14.25 19.1719 13.875 19.5 13.5 19.5H9.75C9.32812 19.5 9 19.1719 9 18.75ZM5.25 10.5H12.75C13.5469 10.5 14.25 11.2031 14.25 12V15C14.25 15.8438 13.5469 16.5 12.75 16.5H5.25C4.40625 16.5 3.75 15.8438 3.75 15V12C3.75 11.2031 4.40625 10.5 5.25 10.5Z" fill="#313436"/>
</svg>
