<svg width="40" height="40" viewBox="0 0 40 40" fill="none" xmlns="http://www.w3.org/2000/svg">
<path d="M36 27.6004V28.6004C36.5523 28.6004 37 28.1527 37 27.6004H36ZM36 18.8004H37C37 18.2481 36.5523 17.8004 36 17.8004V18.8004ZM12.2592 10.7592C11.7947 11.0579 11.6602 11.6766 11.9588 12.1412C12.2575 12.6057 12.8762 12.7402 13.3408 12.4416L12.2592 10.7592ZM24 4.40039L24.7893 3.78645C24.4716 3.37791 23.8946 3.27933 23.4592 3.55921L24 4.40039ZM28.8106 12.2143C29.1497 12.6503 29.778 12.7288 30.2139 12.3897C30.6499 12.0507 30.7284 11.4224 30.3893 10.9865L28.8106 12.2143ZM36 26.6004H30.8V28.6004H36V26.6004ZM30.8 19.8004H36V17.8004H30.8V19.8004ZM35 18.8004V27.6004H37V18.8004H35ZM27.4 23.2004C27.4 21.3226 28.9222 19.8004 30.8 19.8004V17.8004C27.8177 17.8004 25.4 20.2181 25.4 23.2004H27.4ZM30.8 26.6004C28.9222 26.6004 27.4 25.0782 27.4 23.2004H25.4C25.4 26.1827 27.8177 28.6004 30.8 28.6004V26.6004ZM13.3408 12.4416L24.5408 5.24157L23.4592 3.55921L12.2592 10.7592L13.3408 12.4416ZM23.2106 5.01433L28.8106 12.2143L30.3893 10.9865L24.7893 3.78645L23.2106 5.01433ZM5.6 12.6004H32.8V10.6004H5.6V12.6004ZM32.8 34.6004H5.6V36.6004H32.8V34.6004ZM5 34.0004V13.2004H3V34.0004H5ZM5.6 34.6004C5.26863 34.6004 5 34.3318 5 34.0004H3C3 35.4363 4.16406 36.6004 5.6 36.6004V34.6004ZM33.4 34.0004C33.4 34.3318 33.1314 34.6004 32.8 34.6004V36.6004C34.2359 36.6004 35.4 35.4363 35.4 34.0004H33.4ZM32.8 12.6004C33.1314 12.6004 33.4 12.869 33.4 13.2004H35.4C35.4 11.7645 34.2359 10.6004 32.8 10.6004V12.6004ZM5.6 10.6004C4.16406 10.6004 3 11.7645 3 13.2004H5C5 12.869 5.26863 12.6004 5.6 12.6004V10.6004ZM33.4 28.8004V34.0004H35.4V28.8004H33.4ZM33.4 13.2004V17.4004H35.4V13.2004H33.4Z" fill="#5734DC"/>
</svg>
