<svg width="24" height="24" viewBox="0 0 24 24" fill="none" xmlns="http://www.w3.org/2000/svg">
<path d="M2.40039 18.0815L2.40061 6.25766C2.40062 5.58422 3.05282 5.10331 3.69617 5.30235L4.04424 5.41004C6.71624 6.23671 9.60504 6.23671 12.277 5.41004C15.1979 4.50639 18.3693 4.59289 21.2279 5.65417L21.6006 5.79256L21.6004 18.575C21.6004 18.7676 21.4083 18.9012 21.2276 18.8342V18.8342C18.369 17.7729 15.1976 17.6864 12.2768 18.59C9.60479 19.4167 6.71599 19.4167 4.04399 18.59L2.40039 18.0815Z" stroke="#5734DC" stroke-width="2" stroke-linejoin="round"/>
<path d="M14.4004 11.99C14.4004 13.3155 13.3259 14.39 12.0004 14.39C10.6749 14.39 9.60039 13.3155 9.60039 11.99C9.60039 10.6646 10.6749 9.59004 12.0004 9.59004C13.3259 9.59004 14.4004 10.6646 14.4004 11.99Z" stroke="#5734DC" stroke-width="2" stroke-linejoin="round"/>
</svg>
