<svg xmlns="http://www.w3.org/2000/svg" version="1.0" width="512.000000pt" height="512.000000pt" viewBox="0 0 512.000000 512.000000" preserveAspectRatio="xMidYMid meet">

<g transform="translate(0.000000,512.000000) scale(0.100000,-0.100000)" fill="#5734dc" stroke="none">
<path d="M3230 4554 c-316 -135 -590 -258 -609 -273 -19 -15 -40 -43 -47 -62 -16 -43 -19 -779 -4 -944 31 -346 119 -621 276 -863 174 -266 444 -509 821 -735 172 -103 174 -103 346 0 588 354 910 735 1037 1230 57 226 70 385 69 878 -1 440 -2 451 -60 496 -50 38 -1179 519 -1221 519 -21 0 -243 -90 -608 -246z m1097 -296 l473 -203 0 -330 c0 -181 -5 -379 -10 -440 -51 -549 -277 -898 -809 -1250 -71 -47 -134 -85 -140 -85 -6 0 -57 29 -112 65 -342 222 -574 459 -694 710 -76 158 -125 348 -145 560 -5 61 -10 259 -10 440 l0 330 468 202 c257 110 476 201 487 202 11 1 233 -90 492 -201z" fill="#5734dc"/>
<path d="M4251 3823 c-23 -11 -116 -120 -293 -340 -142 -178 -262 -323 -266 -323 -4 0 -52 68 -107 151 -119 180 -145 204 -226 204 -96 0 -154 -58 -154 -155 l0 -58 180 -268 c192 -287 217 -313 293 -314 75 0 89 14 444 458 187 233 343 435 349 448 48 128 -98 259 -220 197z" fill="#5734dc"/>
<path d="M223 3821 c-72 -24 -127 -65 -163 -120 -64 -96 -61 -1 -58 -1642 l3 -1494 26 -56 c33 -71 87 -125 158 -158 l56 -26 2315 0 2315 0 56 26 c71 33 125 87 158 158 l26 56 0 627 c0 617 0 627 -21 654 -39 53 -71 69 -134 69 -63 0 -95 -16 -134 -69 -21 -27 -21 -39 -24 -617 l-2 -589 -2240 0 -2240 0 0 960 0 960 908 2 909 3 37 29 c90 68 86 190 -8 260 -27 21 -36 21 -937 24 l-909 2 0 320 0 320 908 2 909 3 37 29 c90 68 86 190 -8 260 -27 21 -36 21 -959 23 -876 2 -935 1 -984 -16z" fill="#5734dc"/>
<path d="M735 1906 c-68 -30 -105 -106 -90 -183 9 -47 71 -110 117 -118 18 -3 191 -5 384 -3 l351 3 37 29 c90 68 86 190 -8 260 -26 20 -41 21 -394 23 -290 2 -373 0 -397 -11z" fill="#5734dc"/>
</g>
</svg>