<?xml version="1.0" standalone="no"?>
<!DOCTYPE svg PUBLIC "-//W3C//DTD SVG 20010904//EN"
 "http://www.w3.org/TR/2001/REC-SVG-20010904/DTD/svg10.dtd">
<svg version="1.0" xmlns="http://www.w3.org/2000/svg"
 width="512.000000pt" height="512.000000pt" viewBox="0 0 512.000000 512.000000"
 preserveAspectRatio="xMidYMid meet">

<g transform="translate(0.000000,512.000000) scale(0.100000,-0.100000)"
fill="#000000" stroke="none">
<path d="M626 4789 c-62 -15 -153 -68 -197 -116 -22 -24 -55 -74 -72 -111
l-32 -67 0 -415 0 -415 32 -67 c17 -37 50 -87 73 -112 52 -56 160 -112 234
-121 l55 -7 3 -367 3 -366 32 -67 c44 -93 100 -151 191 -195 72 -36 79 -37
203 -41 l129 -4 0 -392 c0 -444 4 -480 70 -614 40 -80 134 -191 200 -235 l25
-17 -23 -17 c-39 -28 -81 -98 -98 -163 -13 -50 -15 -105 -12 -274 3 -194 5
-215 26 -256 35 -71 75 -114 144 -151 l63 -34 845 0 845 0 63 34 c70 38 100
69 140 145 l27 51 0 240 0 240 -28 59 c-15 32 -43 74 -63 93 l-36 34 28 21
c53 39 139 134 172 191 18 30 45 88 60 129 l27 73 3 422 3 421 168 4 167 3 76
37 c91 45 147 103 191 196 l32 67 3 366 3 367 55 7 c74 9 182 65 234 121 23
25 56 75 73 112 l32 67 0 415 0 415 -32 67 c-44 93 -100 151 -191 196 l-76 37
-1915 2 c-1134 0 -1932 -3 -1955 -8z m3848 -161 c55 -16 138 -99 154 -154 17
-58 17 -730 0 -788 -16 -55 -99 -138 -154 -154 -80 -23 -74 -40 -74 228 0 210
2 240 15 240 27 0 65 47 65 80 0 19 -9 40 -25 55 l-24 25 -1871 0 -1871 0 -24
-25 c-16 -15 -25 -36 -25 -55 0 -33 38 -80 65 -80 13 0 15 -30 15 -240 0 -268
6 -251 -74 -228 -55 16 -138 99 -154 154 -17 58 -17 730 0 788 15 51 99 137
148 153 53 17 3777 17 3834 1z m-3212 -657 c-36 -31 -92 -51 -141 -51 -21 0
-41 -9 -56 -25 l-25 -24 0 -431 0 -431 25 -24 c15 -16 35 -25 56 -25 122 0
239 -117 239 -239 0 -21 9 -41 25 -56 l24 -25 776 0 775 0 0 -80 0 -80 -936 0
c-706 0 -947 3 -978 12 -55 16 -138 99 -154 154 -9 31 -12 212 -12 698 l0 656
208 0 207 -1 -33 -28z m928 -32 c-130 -202 -143 -468 -33 -699 43 -91 151
-204 228 -239 167 -78 347 -40 480 100 208 221 233 596 55 854 l-31 45 373 0
373 0 24 -45 c41 -77 146 -158 234 -179 l27 -6 0 -330 c0 -274 -2 -330 -14
-330 -7 0 -43 -15 -78 -33 l-65 -32 -11 55 c-44 211 -243 353 -450 320 -160
-26 -287 -139 -328 -292 -8 -33 -14 -105 -14 -190 l0 -138 -725 0 c-573 0
-725 3 -725 13 0 28 -62 139 -101 181 -39 43 -163 116 -195 116 -12 0 -14 58
-14 330 0 257 3 330 13 330 27 0 139 61 180 99 24 23 55 61 68 86 l24 45 372
0 373 0 -40 -61z m447 48 c132 -49 227 -203 240 -391 13 -199 -72 -378 -212
-447 -54 -27 -73 -31 -117 -27 -69 6 -123 32 -178 88 -136 137 -169 396 -75
594 70 147 220 228 342 183z m1603 -643 c0 -486 -3 -667 -12 -698 -16 -55 -99
-138 -154 -154 -24 -7 -100 -12 -178 -12 l-136 0 0 136 c0 170 9 204 75 269
51 52 102 75 164 75 21 0 41 9 56 25 l25 24 0 431 0 431 -23 23 c-15 15 -40
25 -74 29 -54 6 -120 35 -142 61 -12 14 6 16 193 16 l206 0 0 -656z m-785 -88
c59 -28 97 -66 122 -121 17 -37 18 -93 21 -809 2 -539 0 -784 -8 -822 -37
-176 -179 -323 -357 -369 -85 -22 -1341 -22 -1426 0 -173 45 -307 179 -352
350 -12 48 -15 131 -15 447 l0 388 546 0 546 0 -56 -46 c-187 -152 -316 -420
-316 -656 0 -60 31 -98 80 -98 55 0 76 33 83 133 14 177 83 324 211 453 129
128 276 197 453 211 72 5 91 10 110 29 l23 23 0 349 c0 402 3 421 72 489 79
77 169 94 263 49z m-89 -2322 c68 -51 69 -53 69 -294 0 -241 -1 -243 -69 -294
-27 -21 -35 -21 -846 -21 -811 0 -819 0 -846 21 -67 49 -69 57 -72 267 -4 221
-1 245 35 288 52 61 14 59 895 56 797 -2 807 -2 834 -23z"/>
</g>
</svg>
